<?xml version="1.0" encoding="utf-8"?>
<!-- Generator: Adobe Illustrator 16.0.0, SVG Export Plug-In . SVG Version: 6.00 Build 0)  -->
<svg version="1.1" id="Layer_1" xmlns="http://www.w3.org/2000/svg"
	xmlns:xlink="http://www.w3.org/1999/xlink" x="0px" y="0px"
	width="1000px" height="1000px" viewBox="0 0 1000 1000" enable-background="new 0 0 1000 1000"
	xml:space="preserve">
<g>
	<g>
		<path fill="#FFFFFF" d="M791,934H163c-9.941,0-19-9.059-19-19V395c0-9.941,9.059-17,19-17h432.758
			c8.773,0,16.27,5.825,17.744,14.475c12.393,72.684,74.873,125.188,148.562,125.188c10.436,0,18.843-0.733,25.704-1.985
			c5.249-0.96,10.16,0.4,14.26,3.821c4.101,3.42,5.972,8.421,5.972,13.761V915C808,924.941,800.941,934,791,934z M180,898h592
			V553.19c-3,0.149-6.602,0.223-10.436,0.223c-44.371,0-87.096-15.307-120.758-44.01C611.401,484.331,590.756,451,581.207,414H180
			V898z"/>
	</g>
	<g>
		<path fill="#FFFFFF" d="M595.778,414c-0.007,0-0.013,0-0.021,0H278c-9.941,0-19-9.059-19-19V280.585
			c0-57.284,22.803-111.139,63.3-151.644c40.5-40.508,94.601-62.816,151.884-62.816c57.252,0,111.229,22.304,151.759,62.802
			c26.597,26.567,45.841,59.639,55.531,95.639c1.953,7.254-0.772,14.957-6.885,19.324c-19.184,13.708-35.087,31.912-46.02,52.645
			c-11.455,21.721-17.255,45.291-17.255,70.057c0,8.477,0.678,16.674,2.007,24.381c0.296,1.295,0.455,3.144,0.455,4.528
			C613.776,405.441,605.719,414,595.778,414z M295,378h280.604c-0.188-4-0.282-7.406-0.282-10.909
			c0-30.246,7.406-60.528,21.419-87.1c11.507-21.819,27.465-41.495,46.564-57.28c-8.761-25.512-23.37-48.964-42.682-68.253
			c-33.734-33.708-79.049-52.302-126.69-52.302C375.545,102.156,295,182.182,295,280.585V378z"/>
	</g>
	<g>
		<path fill="#FFFFFF" d="M479,798c-9.941,0-18-8.059-18-18V636c0-9.941,8.059-18,18-18s18,8.059,18,18v144
			C497,789.941,488.941,798,479,798z"/>
	</g>
	<g>
		<path fill="#FFFFFF" d="M762.144,553.357c-44.241,0-87.135-15.77-120.779-44.405c-33.255-28.304-55.614-67.473-62.957-110.291
			c-1.783-10.325-2.688-21.007-2.688-31.728c0-60.104,29.221-116.867,78.166-151.841c31.747-22.648,69.179-34.615,108.259-34.615
			c102.812,0,186.454,83.644,186.454,186.456c0,44.195-15.737,87.051-44.312,120.672c-28.248,33.235-67.358,55.61-110.127,63.001
			C783.7,552.431,772.92,553.357,762.144,553.357z M762.144,215.685c-31.706,0-62.067,9.704-87.801,28.062
			c-39.705,28.371-63.417,74.426-63.417,123.187c0,8.719,0.733,17.384,2.179,25.757c5.955,34.723,24.095,66.483,51.08,89.451
			c27.282,23.22,62.071,36.009,97.959,36.009c8.754,0,17.499-0.752,25.992-2.232c34.689-5.995,66.402-24.146,89.322-51.113
			c23.171-27.263,35.933-62.021,35.933-97.871C913.391,283.535,845.541,215.685,762.144,215.685z"/>
	</g>
	<g>
		<path fill="#FFFFFF" d="M745.695,432.49c-0.169,0-0.338-0.002-0.508-0.007c-4.816-0.139-9.365-2.245-12.586-5.829l-43.723-48.645
			c-6.499-7.23-5.906-18.361,1.325-24.86c7.23-6.499,18.361-5.905,24.86,1.325l31.364,34.896l73.068-72.438
			c6.904-6.844,18.05-6.799,24.896,0.108c6.845,6.904,6.796,18.05-0.108,24.896l-86.196,85.453
			C754.787,430.661,750.33,432.49,745.695,432.49z"/>
	</g>
</g>
</svg>