<?xml version="1.0" encoding="utf-8"?>
<!-- Generator: Adobe Illustrator 16.0.0, SVG Export Plug-In . SVG Version: 6.00 Build 0)  -->

<svg version="1.1" id="Layer_1" xmlns="http://www.w3.org/2000/svg"
	xmlns:xlink="http://www.w3.org/1999/xlink" x="0px" y="0px"
	width="1000px" height="1000px" viewBox="0 0 1000 1000" enable-background="new 0 0 1000 1000"
	xml:space="preserve">
<g>
	<g>
		<path fill="#FFFFFF" d="M502.613,448.553c-110.869,0-201.067-90.228-201.067-201.133c0-110.829,90.198-200.996,201.067-200.996
			c110.868,0,201.066,90.167,201.066,200.996C703.68,358.326,613.481,448.553,502.613,448.553z M502.613,81.633
			c-91.455,0-165.859,74.372-165.859,165.788c0,91.491,74.404,165.925,165.859,165.925s165.859-74.434,165.859-165.925
			C668.473,156.005,594.068,81.633,502.613,81.633z"/>
	</g>
	<g>
		<path fill="#FFFFFF" d="M881.733,852.073c-9.723,0-17.604-7.881-17.604-17.604c0-96.574-37.596-187.359-105.861-255.633
			c-68.272-68.28-159.065-105.884-255.655-105.884s-187.384,37.604-255.657,105.884C178.69,647.11,141.094,737.896,141.094,834.47
			c0,9.723-7.882,17.604-17.604,17.604s-17.604-7.881-17.604-17.604c0-53.552,10.489-105.509,31.174-154.429
			c19.978-47.245,48.576-89.671,84.999-126.099c36.426-36.43,78.851-65.033,126.097-85.015
			c48.925-20.691,100.892-31.183,154.457-31.183s105.532,10.492,154.456,31.183c47.246,19.982,89.671,48.585,126.097,85.015
			c36.423,36.428,65.021,78.854,84.998,126.099c20.685,48.92,31.173,100.877,31.173,154.429
			C899.337,844.192,891.456,852.073,881.733,852.073z"/>
	</g>
</g>
</svg>