<?xml version="1.0" encoding="utf-8"?>
<!-- Generator: Adobe Illustrator 16.0.0, SVG Export Plug-In . SVG Version: 6.00 Build 0)  -->
<svg version="1.1" id="Layer_1" xmlns="http://www.w3.org/2000/svg"
	xmlns:xlink="http://www.w3.org/1999/xlink" x="0px" y="0px"
	width="1000px" height="1000px" viewBox="0 0 1000 1000" enable-background="new 0 0 1000 1000"
	xml:space="preserve">
<g>
	<g>
		<path fill="#FFFFFF" d="M831,916c0,9.941-8.059,18-18,18H185c-9.941,0-18-8.059-18-18V398c0-9.941,8.059-18,18-18h628
			c9.941,0,18,8.059,18,18V916z M203,898h592V416H203V898z"/>
	</g>
	<g>
		<path fill="#FFFFFF" d="M693,415c-9.941,0-18-8.059-18-18V281.055c0-98.401-80.075-178.457-178.5-178.457
			c-98.425,0-178.5,80.056-178.5,178.457V397c0,9.941-8.059,18-18,18s-18-8.059-18-18V281.055
			c0-118.252,96.224-214.457,214.5-214.457c118.275,0,214.5,96.205,214.5,214.457V397C711,406.941,702.941,415,693,415z"/>
	</g>
	<g>
		<path fill="#FFFFFF" d="M502,798c-9.941,0-18-8.059-18-18V637c0-9.941,8.059-18,18-18c9.941,0,18,8.059,18,18v143
			C520,789.941,511.941,798,502,798z"/>
	</g>
</g>
</svg>