<?xml version="1.0" encoding="utf-8"?>
<!-- Generator: Adobe Illustrator 16.0.0, SVG Export Plug-In . SVG Version: 6.00 Build 0)  -->
<svg version="1.1" id="Layer_1" xmlns="http://www.w3.org/2000/svg"
	xmlns:xlink="http://www.w3.org/1999/xlink" x="0px" y="0px"
	width="1000px" height="1000px" viewBox="0 0 1000 1000" enable-background="new 0 0 1000 1000"
	xml:space="preserve">
<g>
	<g>
		<path fill="#FFFFFF" d="M879,750c0,9.941-8.059,18-18,18H136c-9.941,0-18-8.059-18-18V252c0-9.941,8.059-18,18-18h725
			c9.941,0,18,8.059,18,18V750z M154,732h689V270H154V732z"/>
	</g>
	<g>
		<path fill="#FFFFFF" d="M498.582,524.17c-3.486,0-6.973-1.033-9.977-3.1L125.828,271.53c-8.011-5.51-10.037-16.47-4.527-24.48
			c5.509-8.011,16.471-10.038,24.48-4.527L498.582,485.2l352.801-242.678c8.01-5.51,18.971-3.483,24.48,4.527
			s3.483,18.971-4.527,24.48L508.559,521.07C505.555,523.137,502.068,524.17,498.582,524.17z"/>
	</g>
</g>
</svg>